<svg version="1.2" baseProfile="tiny-ps" xmlns="http://www.w3.org/2000/svg" viewBox="0 0 196 160" width="196" height="160">
	<title>stats</title>
	<style>
		tspan { white-space:pre }
		.shp0 { fill: #ffffff } 
	</style>
	<g id="stats">
		<g id="Group 16">
			<g id="Group 4">
				<path id="Shape 1" class="shp0" d="M104.57 111.02L156.85 111.02C158.81 111.02 160.11 109.71 160.11 107.76L160.11 78.37C160.11 76.41 158.81 75.1 156.85 75.1L104.57 75.1C102.6 75.1 101.3 76.41 101.3 78.37L101.3 107.76C101.3 109.71 102.6 111.02 104.57 111.02ZM107.83 81.63L153.58 81.63L153.58 104.49L107.83 104.49L107.83 81.63ZM16.34 68.57L42.48 68.57C44.44 68.57 45.75 67.27 45.75 65.31C45.75 63.35 44.44 62.04 42.48 62.04L16.34 62.04C14.38 62.04 13.07 63.35 13.07 65.31C13.07 67.27 14.38 68.57 16.34 68.57ZM55.55 68.57L81.69 68.57C83.65 68.57 84.96 67.27 84.96 65.31C84.96 63.35 83.65 62.04 81.69 62.04L55.55 62.04C53.59 62.04 52.28 63.35 52.28 65.31C52.28 67.27 53.59 68.57 55.55 68.57ZM16.34 81.63L58.82 81.63C60.78 81.63 62.09 80.33 62.09 78.37C62.09 76.41 60.78 75.1 58.82 75.1L16.34 75.1C14.38 75.1 13.07 76.41 13.07 78.37C13.07 80.33 14.38 81.63 16.34 81.63ZM81.69 75.1L71.89 75.1C69.93 75.1 68.62 76.41 68.62 78.37C68.62 80.33 69.93 81.63 71.89 81.63L81.69 81.63C83.65 81.63 84.96 80.33 84.96 78.37C84.96 76.41 83.65 75.1 81.69 75.1ZM193.12 34.61C190.83 31.67 187.89 30.04 184.3 29.71L176.45 28.76L176.45 19.59L176.45 13.06C176.45 5.88 170.57 0 163.38 0L13.07 0C5.88 0 0 5.88 0 13.06L0 19.59L0 45.71L0 117.55C0 123.45 3.97 128.46 9.36 130.07C9.2 136.68 14.2 142.41 20.91 143.02L171.88 160C172.21 160 172.86 160 173.19 160C179.72 160 185.6 155.1 186.26 148.9L196.06 44.08C196.39 40.82 195.41 37.22 193.12 34.61ZM6.54 22.86L169.92 22.86L169.92 31.35L169.92 42.45L6.54 42.45L6.54 22.86ZM13.07 6.53L163.38 6.53C166.98 6.53 169.92 9.47 169.92 13.06L169.92 16.33L6.54 16.33L6.54 13.06C6.54 9.47 9.48 6.53 13.07 6.53ZM6.54 117.55L6.54 48.98L169.92 48.98L169.92 117.55C169.92 121.14 166.98 124.08 163.38 124.08L13.4 124.08L13.07 124.08C9.48 124.08 6.54 121.14 6.54 117.55ZM189.52 42.78L179.72 147.59C179.39 151.18 176.13 153.8 172.53 153.47L21.89 136.49C18.63 136.16 16.34 133.55 16.01 130.61L163.38 130.61C170.57 130.61 176.45 124.74 176.45 117.55L176.45 45.71L176.45 34.94L183.97 35.59C185.6 35.59 187.24 36.57 188.22 37.88C189.2 39.18 189.85 41.14 189.52 42.78Z" />
			</g>
		</g>
	</g>
</svg>