<svg version="1.2" baseProfile="tiny-ps" xmlns="http://www.w3.org/2000/svg" viewBox="0 0 136 160" width="136" height="160">
	<title>stats</title>
	<style>
		tspan { white-space:pre }
		.shp0 { fill: #78797a } 
	</style>
	<g id="stats">
		<g id="Group 16">
			<g id="Group 4 copy 2">
				<path id="Shape 1" class="shp0" d="M120.27 40.44C118.22 17.79 98.85 0 75.31 0L21.96 0C20.3 0 18.9 1.16 18.67 2.78L0.03 133.37C-0.11 134.31 0.18 135.28 0.81 135.99C1.44 136.71 2.35 137.14 3.31 137.14L19.93 137.14C18.36 147.83 16.66 155.97 16.65 156.06C16.45 157.01 16.7 158.03 17.33 158.79C17.96 159.55 18.9 160 19.9 160L54.13 160C55.78 160 57.18 158.64 57.41 157.03L63.64 114.29L92.4 114.29C116.44 114.29 136 95.65 136 72.54C136 59.97 130.27 48.44 120.27 40.44ZM24.84 6.53L75.31 6.53C96.55 6.53 113.82 23.59 113.82 44.52C113.82 65.4 96.55 82.45 75.31 82.45L43.37 82.45C41.72 82.45 40.32 83.59 40.09 85.2L33.6 130.61L7.13 130.61L24.84 6.53ZM92.4 107.76L60.77 107.76C59.12 107.76 57.72 109.11 57.49 110.72L51.26 153.47L23.91 153.47C24.57 150.2 25.56 144.47 26.5 138.07C26.54 137.75 26.53 137.14 26.48 137.14L36.48 137.14C38.13 137.14 39.53 136 39.76 134.39L46.25 88.98L75.31 88.98C98.52 88.98 117.68 71.57 120.17 49.37C126.07 55.78 129.36 63.83 129.36 72.57C129.37 92.08 112.78 107.76 92.4 107.76Z" />
			</g>
		</g>
	</g>
</svg>