<svg version="1.2" baseProfile="tiny-ps" xmlns="http://www.w3.org/2000/svg" viewBox="0 0 156 160" width="156" height="160">
	<title>stats</title>
	<style>
		tspan { white-space:pre }
		.shp0 { fill: #78797a } 
	</style>
	<g id="stats">
		<g id="Group 16">
			<g id="Group 4 copy">
				<path id="Shape 1" class="shp0" d="M95.99 73.17L142.69 73.17C149.99 73.17 155.93 67.22 155.93 59.93L155.93 13.23C155.93 5.94 149.99 0 142.69 0L95.99 0C88.7 0 82.75 5.94 82.75 13.23L82.75 59.9C82.75 67.22 88.7 73.17 95.99 73.17ZM90.8 13.23C90.8 10.38 93.13 8.05 95.99 8.05L142.69 8.05C145.55 8.05 147.88 10.38 147.88 13.23L147.88 59.9C147.88 62.76 145.55 65.09 142.69 65.09L95.99 65.09C93.13 65.09 90.8 62.76 90.8 59.9L90.8 13.23ZM32.86 7.75C31.29 6.17 28.75 6.17 27.18 7.75L1.18 33.73C-0.39 35.3 -0.39 37.83 1.18 39.41L27.18 65.39C27.97 66.17 28.99 66.57 30.04 66.57C31.09 66.57 32.11 66.17 32.9 65.39C34.47 63.81 34.47 61.28 32.9 59.7L13.74 40.59L69.87 40.59C72.1 40.59 73.91 38.78 73.91 36.58C73.91 34.38 72.1 32.55 69.87 32.55L13.74 32.55L32.86 13.43C34.44 11.89 34.44 9.33 32.86 7.75ZM0 146.77C0 154.06 5.95 160 13.24 160L59.94 160C67.24 160 73.19 154.06 73.19 146.77L73.19 100.1C73.19 92.81 67.24 86.86 59.94 86.86L13.28 86.86C5.98 86.86 0.03 92.81 0.03 100.1L0.03 146.77L0 146.77ZM8.05 100.1C8.05 97.24 10.38 94.91 13.24 94.91L59.94 94.91C62.8 94.91 65.13 97.24 65.13 100.1L65.13 146.77C65.13 149.62 62.8 151.95 59.94 151.95L13.28 151.95C10.42 151.95 8.08 149.62 8.08 146.77L8.08 100.1L8.05 100.1ZM86.1 127.45L142.23 127.45L123.1 146.57C121.53 148.14 121.53 150.67 123.1 152.25C123.89 153.04 124.91 153.43 125.96 153.43C127.02 153.43 128.03 153.04 128.82 152.25L154.82 126.27C155.57 125.52 156 124.5 156 123.42C156 122.36 155.57 121.31 154.82 120.56L128.82 94.58C127.25 93 124.71 93 123.14 94.58C121.56 96.16 121.56 98.69 123.14 100.26L142.26 119.38L86.1 119.38C83.87 119.38 82.06 121.18 82.06 123.42C82.06 125.65 83.87 127.45 86.1 127.45Z" />
			</g>
		</g>
	</g>
</svg>